<svg width="179" height="57" viewBox="0 0 179 57" fill="none" xmlns="http://www.w3.org/2000/svg">
<path d="M33.68 29.16C34.0267 29.16 34.2933 29.3333 34.48 29.68C34.6933 30 34.8 30.4133 34.8 30.92C34.8 31.5333 34.7067 32.0133 34.52 32.36C34.3333 32.7067 34.04 33.0133 33.64 33.28C32.0667 34.32 29.56 36.0267 26.12 38.4C25.08 43.92 23.7333 48.2667 22.08 51.44C20.4267 54.6133 18.3333 56.2 15.8 56.2C14.44 56.2 13.3333 55.7733 12.48 54.92C11.6267 54.0933 11.2 53 11.2 51.64C11.2 50.3867 11.48 49.12 12.04 47.84C12.6 46.56 13.64 45.08 15.16 43.4C16.7067 41.72 18.88 39.8 21.68 37.64L21.8 36.88C19.6933 37.76 17.6267 38.2 15.6 38.2C12.6133 38.2 9.98667 37.6267 7.72 36.48C5.45333 35.3067 3.69333 33.6533 2.44 31.52C1.18667 29.3867 0.56 26.9067 0.56 24.08C0.56 20.1333 1.30667 16.6533 2.8 13.64C4.29333 10.6 6.34667 8.25333 8.96 6.6C11.6 4.92 14.5467 4.08 17.8 4.08C20.92 4.08 23.2533 4.81333 24.8 6.28C26.3733 7.72 27.16 9.64 27.16 12.04C27.16 13.6133 26.8667 14.88 26.28 15.84C25.72 16.7733 24.9067 17.24 23.84 17.24C23.12 17.24 22.5333 17.0667 22.08 16.72C21.6533 16.3733 21.44 15.8933 21.44 15.28C21.44 15.0133 21.4933 14.56 21.6 13.92C21.76 13.1733 21.84 12.5867 21.84 12.16C21.84 11.04 21.4933 10.1733 20.8 9.56C20.1333 8.94667 19 8.64 17.4 8.64C15.4533 8.64 13.64 9.2 11.96 10.32C10.3067 11.44 8.97333 13.12 7.96 15.36C6.94667 17.5733 6.44 20.24 6.44 23.36C6.44 26.56 7.30667 29.04 9.04 30.8C10.8 32.5333 13.3333 33.4 16.64 33.4C18.48 33.4 20.4 32.9867 22.4 32.16L22.96 27.28H18.88C18.1333 27.28 17.56 27.1067 17.16 26.76C16.76 26.3867 16.56 25.7867 16.56 24.96C16.56 24.2133 16.76 23.6267 17.16 23.2C17.56 22.7733 18.0933 22.56 18.76 22.56H26.24C26.8267 22.56 27.3067 22.76 27.68 23.16C28.08 23.5333 28.24 24.08 28.16 24.8C28.08 25.6533 27.8133 27.5867 27.36 30.6L26.92 33.64C29.0533 32.04 31 30.6533 32.76 29.48C33.1067 29.2667 33.4133 29.16 33.68 29.16ZM16.24 52.32C16.9333 52.32 17.6933 51.5333 18.52 49.96C19.3467 48.3867 20.12 45.8533 20.84 42.36C18.8133 44.0933 17.3467 45.6533 16.44 47.04C15.56 48.4533 15.12 49.6933 15.12 50.76C15.12 51.8 15.4933 52.32 16.24 52.32ZM52.7419 25.72C53.0885 25.72 53.3552 25.8933 53.5419 26.24C53.7285 26.5867 53.8219 27.0267 53.8219 27.56C53.8219 28.84 53.4352 29.6 52.6619 29.84C51.0619 30.4 49.3019 30.72 47.3819 30.8C46.8752 33.04 45.8752 34.84 44.3819 36.2C42.8885 37.5333 41.1952 38.2 39.3019 38.2C37.7019 38.2 36.3285 37.8133 35.1819 37.04C34.0619 36.2667 33.2085 35.24 32.6219 33.96C32.0352 32.68 31.7419 31.2933 31.7419 29.8C31.7419 27.7733 32.1285 25.9733 32.9019 24.4C33.6752 22.8 34.7419 21.56 36.1019 20.68C37.4619 19.7733 38.9685 19.32 40.6219 19.32C42.6485 19.32 44.2752 20.0267 45.5019 21.44C46.7552 22.8267 47.4885 24.5467 47.7019 26.6C48.9552 26.52 50.4485 26.2533 52.1819 25.8C52.3952 25.7467 52.5819 25.72 52.7419 25.72ZM39.6219 33.96C40.4752 33.96 41.2085 33.6133 41.8219 32.92C42.4619 32.2267 42.8885 31.2267 43.1019 29.92C42.2752 29.36 41.6352 28.6267 41.1819 27.72C40.7552 26.8133 40.5419 25.8533 40.5419 24.84C40.5419 24.4133 40.5819 23.9867 40.6619 23.56H40.4619C39.3952 23.56 38.5019 24.08 37.7819 25.12C37.0885 26.1333 36.7419 27.5733 36.7419 29.44C36.7419 30.9067 37.0219 32.0267 37.5819 32.8C38.1685 33.5733 38.8485 33.96 39.6219 33.96ZM70.7888 25.72C71.1354 25.72 71.4021 25.8933 71.5888 26.24C71.7754 26.5867 71.8688 27.0267 71.8688 27.56C71.8688 28.84 71.4821 29.6 70.7088 29.84C69.1088 30.4 67.3488 30.72 65.4288 30.8C64.9221 33.04 63.9221 34.84 62.4288 36.2C60.9354 37.5333 59.2421 38.2 57.3488 38.2C55.7488 38.2 54.3754 37.8133 53.2288 37.04C52.1088 36.2667 51.2554 35.24 50.6688 33.96C50.0821 32.68 49.7887 31.2933 49.7887 29.8C49.7887 27.7733 50.1754 25.9733 50.9488 24.4C51.7221 22.8 52.7888 21.56 54.1488 20.68C55.5088 19.7733 57.0154 19.32 58.6688 19.32C60.6954 19.32 62.3221 20.0267 63.5488 21.44C64.8021 22.8267 65.5354 24.5467 65.7488 26.6C67.0021 26.52 68.4954 26.2533 70.2288 25.8C70.4421 25.7467 70.6288 25.72 70.7888 25.72ZM57.6688 33.96C58.5221 33.96 59.2554 33.6133 59.8688 32.92C60.5088 32.2267 60.9354 31.2267 61.1488 29.92C60.3221 29.36 59.6821 28.6267 59.2288 27.72C58.8021 26.8133 58.5888 25.8533 58.5888 24.84C58.5888 24.4133 58.6288 23.9867 58.7088 23.56H58.5088C57.4421 23.56 56.5488 24.08 55.8288 25.12C55.1354 26.1333 54.7888 27.5733 54.7888 29.44C54.7888 30.9067 55.0688 32.0267 55.6288 32.8C56.2154 33.5733 56.8954 33.96 57.6688 33.96ZM91.1556 29.08C91.5023 29.08 91.769 29.24 91.9556 29.56C92.169 29.88 92.2756 30.32 92.2756 30.88C92.2756 31.9467 92.0223 32.7733 91.5156 33.36C90.4223 34.6933 89.2223 35.84 87.9156 36.8C86.609 37.7333 85.3156 38.2 84.0356 38.2C82.009 38.2 80.4623 37.0133 79.3956 34.64C78.2756 36.0533 77.289 37 76.4356 37.48C75.609 37.96 74.6356 38.2 73.5156 38.2C71.889 38.2 70.5423 37.6 69.4756 36.4C68.4356 35.1733 67.9156 33.5867 67.9156 31.64C67.9156 29.5067 68.369 27.5333 69.2756 25.72C70.1823 23.88 71.4223 22.3867 72.9956 21.24C74.5956 20.0667 76.3823 19.3733 78.3556 19.16C78.8623 13.9867 79.8223 9.57333 81.2356 5.92C82.6756 2.24 84.5556 0.399998 86.8756 0.399998C88.0223 0.399998 88.969 0.919998 89.7156 1.96C90.489 3 90.8756 4.57333 90.8756 6.68C90.8756 9.66667 90.1423 13.16 88.6756 17.16C87.209 21.16 85.249 25.2667 82.7956 29.48C82.9023 31.0267 83.129 32.1333 83.4756 32.8C83.849 33.4667 84.3156 33.8 84.8756 33.8C85.5956 33.8 86.329 33.48 87.0756 32.84C87.8223 32.2 88.8223 31.1333 90.0756 29.64C90.3956 29.2667 90.7556 29.08 91.1556 29.08ZM86.4356 4.32C85.929 4.32 85.4223 5.22666 84.9156 7.04C84.409 8.82667 83.969 11.1733 83.5956 14.08C83.249 16.9867 82.9956 20.0267 82.8356 23.2C85.8223 16.6933 87.3156 11.4667 87.3156 7.52C87.3156 6.50667 87.2223 5.72 87.0356 5.16C86.8756 4.6 86.6756 4.32 86.4356 4.32ZM74.9156 34.16C75.4223 34.16 75.929 33.96 76.4356 33.56C76.9423 33.1333 77.5823 32.36 78.3556 31.24C78.089 29.8 77.9556 28.1867 77.9556 26.4C77.9556 25.76 77.9823 24.72 78.0356 23.28C76.569 23.7333 75.3423 24.72 74.3556 26.24C73.3956 27.7333 72.9156 29.4 72.9156 31.24C72.9156 33.1867 73.5823 34.16 74.9156 34.16ZM110.302 25.72C110.648 25.72 110.915 25.8933 111.102 26.24C111.288 26.5867 111.382 27.0267 111.382 27.56C111.382 28.2267 111.288 28.7467 111.102 29.12C110.915 29.4667 110.622 29.7067 110.222 29.84C108.622 30.4 106.862 30.72 104.942 30.8C104.408 33.0133 103.395 34.8 101.902 36.16C100.435 37.52 98.8082 38.2 97.0216 38.2C94.3282 38.2 92.3682 37.1733 91.1416 35.12C89.9149 33.0667 89.3016 30.0933 89.3016 26.2C89.3016 22.76 89.7282 19.0267 90.5816 15C91.4349 10.9467 92.6749 7.50666 94.3016 4.68C95.9549 1.82666 97.9149 0.399998 100.182 0.399998C101.408 0.399998 102.395 0.933331 103.142 2C103.888 3.04 104.262 4.4 104.262 6.08C104.262 8.26667 103.848 10.44 103.022 12.6C102.195 14.76 100.822 17.0267 98.9016 19.4C100.688 19.5333 102.142 20.28 103.262 21.64C104.382 22.9733 105.048 24.6267 105.262 26.6C106.515 26.52 108.008 26.2533 109.742 25.8C109.902 25.7467 110.088 25.72 110.302 25.72ZM99.2616 4.36C98.7282 4.36 98.1416 5.16 97.5016 6.76C96.8882 8.33333 96.3149 10.48 95.7816 13.2C95.2482 15.92 94.8482 18.8933 94.5816 22.12C96.3416 18.8933 97.7416 16.0533 98.7816 13.6C99.8482 11.12 100.382 8.92 100.382 7C100.382 6.14667 100.275 5.49333 100.062 5.04C99.8749 4.58667 99.6082 4.36 99.2616 4.36ZM97.1816 33.96C98.0082 33.96 98.7416 33.6133 99.3816 32.92C100.022 32.2267 100.448 31.2267 100.662 29.92C99.8349 29.36 99.1949 28.6267 98.7416 27.72C98.3149 26.8133 98.1016 25.8533 98.1016 24.84C98.1016 24.4667 98.1549 23.96 98.2616 23.32H98.1416C97.0482 23.32 96.1282 23.8667 95.3816 24.96C94.6616 26.0267 94.3016 27.4667 94.3016 29.28C94.3016 30.8 94.5816 31.96 95.1416 32.76C95.7282 33.56 96.4082 33.96 97.1816 33.96ZM128.328 25.72C128.674 25.72 128.941 25.8933 129.128 26.24C129.314 26.5867 129.408 27.0267 129.408 27.56C129.408 28.84 129.021 29.6 128.248 29.84C126.648 30.4 124.888 30.72 122.968 30.8C122.461 33.04 121.461 34.84 119.968 36.2C118.474 37.5333 116.781 38.2 114.888 38.2C113.288 38.2 111.914 37.8133 110.768 37.04C109.648 36.2667 108.794 35.24 108.208 33.96C107.621 32.68 107.328 31.2933 107.328 29.8C107.328 27.7733 107.714 25.9733 108.488 24.4C109.261 22.8 110.328 21.56 111.688 20.68C113.048 19.7733 114.554 19.32 116.208 19.32C118.234 19.32 119.861 20.0267 121.088 21.44C122.341 22.8267 123.074 24.5467 123.288 26.6C124.541 26.52 126.034 26.2533 127.768 25.8C127.981 25.7467 128.168 25.72 128.328 25.72ZM115.208 33.96C116.061 33.96 116.794 33.6133 117.408 32.92C118.048 32.2267 118.474 31.2267 118.688 29.92C117.861 29.36 117.221 28.6267 116.768 27.72C116.341 26.8133 116.128 25.8533 116.128 24.84C116.128 24.4133 116.168 23.9867 116.248 23.56H116.048C114.981 23.56 114.088 24.08 113.368 25.12C112.674 26.1333 112.328 27.5733 112.328 29.44C112.328 30.9067 112.608 32.0267 113.168 32.8C113.754 33.5733 114.434 33.96 115.208 33.96ZM146.375 25.72C146.721 25.72 146.988 25.8933 147.175 26.24C147.361 26.5867 147.455 27.0267 147.455 27.56C147.455 28.84 147.068 29.6 146.295 29.84C144.695 30.4 142.935 30.72 141.015 30.8C140.508 33.04 139.508 34.84 138.015 36.2C136.521 37.5333 134.828 38.2 132.935 38.2C131.335 38.2 129.961 37.8133 128.815 37.04C127.695 36.2667 126.841 35.24 126.255 33.96C125.668 32.68 125.375 31.2933 125.375 29.8C125.375 27.7733 125.761 25.9733 126.535 24.4C127.308 22.8 128.375 21.56 129.735 20.68C131.095 19.7733 132.601 19.32 134.255 19.32C136.281 19.32 137.908 20.0267 139.135 21.44C140.388 22.8267 141.121 24.5467 141.335 26.6C142.588 26.52 144.081 26.2533 145.815 25.8C146.028 25.7467 146.215 25.72 146.375 25.72ZM133.255 33.96C134.108 33.96 134.841 33.6133 135.455 32.92C136.095 32.2267 136.521 31.2267 136.735 29.92C135.908 29.36 135.268 28.6267 134.815 27.72C134.388 26.8133 134.175 25.8533 134.175 24.84C134.175 24.4133 134.215 23.9867 134.295 23.56H134.095C133.028 23.56 132.135 24.08 131.415 25.12C130.721 26.1333 130.375 27.5733 130.375 29.44C130.375 30.9067 130.655 32.0267 131.215 32.8C131.801 33.5733 132.481 33.96 133.255 33.96ZM167.142 29.08C167.488 29.08 167.755 29.24 167.942 29.56C168.155 29.88 168.262 30.32 168.262 30.88C168.262 31.9467 168.008 32.7733 167.502 33.36C166.302 34.8267 165.088 36 163.862 36.88C162.635 37.76 161.182 38.2 159.502 38.2C157.448 38.2 155.795 37.6133 154.542 36.44C153.288 35.2667 152.662 33.7067 152.662 31.76C152.662 30.72 153.195 29.9733 154.262 29.52C155.435 29.0133 156.275 28.48 156.782 27.92C157.288 27.3333 157.542 26.6267 157.542 25.8C157.542 25.32 157.435 24.96 157.222 24.72C157.035 24.48 156.795 24.36 156.502 24.36C155.782 24.36 154.982 24.88 154.102 25.92C153.248 26.96 152.448 28.3067 151.702 29.96C150.955 31.5867 150.368 33.2667 149.942 35C149.648 36.2533 149.302 37.1067 148.902 37.56C148.528 37.9867 147.928 38.2 147.102 38.2C146.275 38.2 145.662 37.9067 145.262 37.32C144.888 36.7067 144.635 35.7733 144.502 34.52C144.368 33.2667 144.302 31.4267 144.302 29C144.302 24.8933 144.715 20.6133 145.542 16.16C146.395 11.7067 147.635 7.97333 149.262 4.96C150.915 1.92 152.888 0.399998 155.182 0.399998C156.408 0.399998 157.395 0.933331 158.142 2C158.915 3.04 159.302 4.4 159.302 6.08C159.302 8.77333 158.515 11.5733 156.942 14.48C155.368 17.36 152.808 20.7333 149.262 24.6C149.182 25.9867 149.142 27.4133 149.142 28.88C150.422 25.5467 151.888 23.1333 153.542 21.64C155.195 20.12 156.742 19.36 158.182 19.36C159.515 19.36 160.582 19.8133 161.382 20.72C162.208 21.6267 162.622 22.7467 162.622 24.08C162.622 25.5467 162.248 26.8933 161.502 28.12C160.755 29.3467 159.475 30.44 157.662 31.4C157.768 32.12 158.088 32.7067 158.622 33.16C159.182 33.5867 159.848 33.8 160.622 33.8C161.448 33.8 162.248 33.48 163.022 32.84C163.795 32.2 164.808 31.1333 166.062 29.64C166.382 29.2667 166.742 29.08 167.142 29.08ZM154.342 4.36C153.862 4.36 153.328 5.05333 152.742 6.44C152.155 7.8 151.582 9.65333 151.022 12C150.488 14.32 150.048 16.8533 149.702 19.6C151.355 17.6533 152.715 15.5333 153.782 13.24C154.875 10.9467 155.422 8.86667 155.422 7C155.422 6.14667 155.328 5.49333 155.142 5.04C154.955 4.58667 154.688 4.36 154.342 4.36ZM172.477 39.08C171.091 39.08 170.024 38.76 169.277 38.12C168.557 37.48 168.197 36.76 168.197 35.96C168.197 35.2667 168.451 34.6667 168.957 34.16C169.464 33.6533 170.211 33.4 171.197 33.4C171.544 33.4 171.944 33.44 172.397 33.52C172.877 33.5733 173.237 33.6133 173.477 33.64C173.451 32.9467 173.291 32.2933 172.997 31.68C172.731 31.0667 172.384 30.48 171.957 29.92C171.531 29.3333 171.131 28.8267 170.757 28.4C169.931 29.9733 169.104 31.28 168.277 32.32C167.477 33.36 166.597 34.3467 165.637 35.28C165.157 35.76 164.651 36 164.117 36C163.691 36 163.344 35.8533 163.077 35.56C162.811 35.24 162.677 34.8533 162.677 34.4C162.677 33.8667 162.864 33.3733 163.237 32.92L163.757 32.28C165.224 30.4667 166.331 28.9733 167.077 27.8C167.557 27.0267 168.037 26.1067 168.517 25.04C169.024 23.9733 169.677 22.52 170.477 20.68C170.984 19.5067 172.037 18.92 173.637 18.92C174.384 18.92 174.904 18.9867 175.197 19.12C175.491 19.2533 175.637 19.4667 175.637 19.76C175.637 19.92 175.584 20.1733 175.477 20.52C175.371 20.8667 175.224 21.2133 175.037 21.56C174.557 22.52 174.317 23.3333 174.317 24C174.317 24.4 174.451 24.84 174.717 25.32C175.011 25.8 175.451 26.4 176.037 27.12C176.891 28.24 177.531 29.2 177.957 30C178.411 30.7733 178.637 31.6267 178.637 32.56C178.637 33.68 178.371 34.7467 177.837 35.76C177.331 36.7467 176.611 37.5467 175.677 38.16C174.744 38.7733 173.677 39.08 172.477 39.08Z" fill="#161E2E"/>
</svg>
